<svg width="45" height="51" viewBox="0 0 45 51" fill="none" xmlns="http://www.w3.org/2000/svg">
	<path d="M11.3814 36.1214C10.363 35.2558 10.8939 35.4999 8.43764 34.9411C7.3232 34.6871 6.34353 34.199 5.4576 33.6143L0.140855 44.6946C-0.373593 45.7674 0.587335 46.9328 1.94904 46.889L8.12359 46.6888L12.3704 50.5018C13.3079 51.3424 14.9532 51.0805 15.4677 50.0077L21.5672 37.2958C20.2969 37.8974 18.8871 38.25 17.4293 38.25C15.1442 38.25 12.9974 37.494 11.3814 36.1214ZM44.8591 44.6946L39.5424 33.6143C38.6565 34.2 37.6768 34.6871 36.5624 34.9411C34.0932 35.5029 34.6346 35.2578 33.6186 36.1214C32.0026 37.494 29.8546 38.25 27.5695 38.25C26.1117 38.25 24.7019 37.8964 23.4316 37.2958L29.5312 50.0077C30.0456 51.0805 31.6921 51.3424 32.6284 50.5018L36.8764 46.6888L43.051 46.889C44.4127 46.9328 45.3736 45.7664 44.8591 44.6946ZM30.8202 33.8673C32.6108 32.3184 32.8159 32.4519 35.3659 31.8612C36.9936 31.4837 38.2662 30.3831 38.7022 28.9746C39.5787 26.1458 39.3514 26.4874 41.7432 24.4176C42.9349 23.3866 43.4002 21.8836 42.9642 20.4751C42.0889 17.6482 42.0877 18.0427 42.9642 15.2128C43.4002 13.8044 42.9349 12.3013 41.7432 11.2704C39.3514 9.20054 39.5787 9.5412 38.7022 6.71335C38.2662 5.3049 36.9936 4.20424 35.3659 3.82672C32.0987 3.06871 32.4925 3.26693 30.0984 1.19609C28.9066 0.165155 27.1687 -0.238255 25.541 0.139257C22.275 0.896274 22.7309 0.89727 19.459 0.139257C17.8313 -0.238255 16.0934 0.164159 14.9016 1.19609C12.5099 3.26593 12.9036 3.06871 9.63529 3.82672C8.00757 4.20424 6.73493 5.3049 6.299 6.71335C5.42361 9.5412 5.64978 9.20054 3.25801 11.2704C2.06623 12.3013 1.59982 13.8044 2.03693 15.2128C2.91231 18.0377 2.91348 17.6433 2.03693 20.4741C1.601 21.8826 2.06623 23.3856 3.25801 24.4176C5.64978 26.4874 5.42244 26.1458 6.299 28.9746C6.73493 30.3831 8.00757 31.4837 9.63529 31.8612C12.2579 32.4688 12.4536 32.3732 14.1798 33.8673C15.7301 35.209 18.1454 35.4491 20.0086 34.447C20.7537 34.045 21.618 33.8315 22.5006 33.8315C23.3831 33.8315 24.2474 34.045 24.9926 34.447C26.8546 35.4491 29.2699 35.209 30.8202 33.8673ZM11.4446 17.5277C11.4446 12.2455 16.3946 7.96342 22.5 7.96342C28.6054 7.96342 33.5554 12.2455 33.5554 17.5277C33.5554 22.8099 28.6054 27.092 22.5 27.092C16.3946 27.092 11.4446 22.8099 11.4446 17.5277Z" fill="#9747FF"/>
	<ellipse cx="22.5" cy="18" rx="11.5" ry="10" fill="#FFFFFF"/>
</svg>
